# Blender v2.56 (sub 0) OBJ File: 'dirt.blend'
# www.blender.org
mtllib dirt.mtl
o Cube
v 0.087500 -0.087500 -0.087500
v 0.087500 -0.087500 0.087500
v -0.087500 -0.087500 0.087500
v -0.087500 -0.087500 -0.087500
v 0.087500 0.087500 -0.087500
v 0.087500 0.087500 0.087500
v -0.087500 0.087500 0.087500
v -0.087500 0.087500 -0.087500
vt 0.500000 1.000000
vt 0.000000 1.000000
vt 0.000000 0.000000
vt 0.500000 0.000000
vt 1.000000 1.000000
vt 1.000000 0.000000
vn -0.000000 -1.000000 0.000000
vn 0.000000 1.000000 -0.000000
vn 1.000000 0.000000 0.000000
vn -0.000000 -0.000000 1.000000
vn -1.000000 -0.000000 -0.000000
vn 0.000000 0.000000 -1.000000
usemtl Material_dirt.png
s off
f 1/1/1 2/2/1 3/3/1
f 1/1/1 3/3/1 4/4/1
f 5/5/2 8/1/2 7/4/2
f 5/5/2 7/4/2 6/6/2
f 1/4/3 5/1/3 6/2/3
f 1/4/3 6/2/3 2/3/3
f 2/4/4 6/1/4 7/2/4
f 2/4/4 7/2/4 3/3/4
f 3/2/5 7/3/5 8/4/5
f 3/2/5 8/4/5 4/1/5
f 5/4/6 1/1/6 4/2/6
f 5/4/6 4/2/6 8/3/6
